<svg id="Layer_1" data-name="Layer 1" xmlns="http://www.w3.org/2000/svg" viewBox="0 0 200 200"><defs><style>.cls-1{fill:#fff;}</style></defs><title>icon</title><path class="cls-1" d="M159.11,116.19c-2.65-10.65-7.51-22.1-14.86-35L100,3.5,55.75,81.19c-7.35,12.9-12.21,24.35-14.86,35A77.82,77.82,0,0,0,38.5,138.1a64.82,64.82,0,0,0,2,13.71,60,60,0,0,0,6.19,15.05,58.71,58.71,0,0,0,26.47,24,66.17,66.17,0,0,0,53.6,0,58.71,58.71,0,0,0,26.47-24,60.4,60.4,0,0,0,6.19-15.05,64.82,64.82,0,0,0,2-13.71A78.19,78.19,0,0,0,159.11,116.19Zm-4.88,21.61A54.37,54.37,0,0,1,147,163.2a51.41,51.41,0,0,1-23.21,21,58.79,58.79,0,0,1-47.54,0A51.46,51.46,0,0,1,53,163.2a54.49,54.49,0,0,1-7.25-25.4A70.33,70.33,0,0,1,48,118c2.49-10,7.11-20.84,14.12-33.16L100,18.2l37.93,66.59c7,12.32,11.63,23.16,14.12,33.16A70.33,70.33,0,0,1,154.23,137.8ZM131.61,88.39,100,32.9,68.4,88.39c-6.69,11.73-11.06,22-13.39,31.32a63.16,63.16,0,0,0-2,17.79,47.25,47.25,0,0,0,6.27,22.05,44.16,44.16,0,0,0,20,18,51.62,51.62,0,0,0,41.48,0,44.22,44.22,0,0,0,20-18A47.25,47.25,0,0,0,147,137.5a62.8,62.8,0,0,0-2-17.79C142.67,110.37,138.29,100.12,131.61,88.39Zm8.08,48.8a40,40,0,0,1-5.29,18.7A37,37,0,0,1,117.72,171a44.28,44.28,0,0,1-35.44,0A37,37,0,0,1,65.6,155.89a40,40,0,0,1-5.29-18.7,55,55,0,0,1,1.76-15.73c2.16-8.69,6.3-18.33,12.65-29.47L100,47.59,125.28,92c6.35,11.14,10.49,20.78,12.65,29.47A55,55,0,0,1,139.69,137.19ZM119,95.59l-19-33.3L81,95.59c-6,10.56-9.91,19.6-11.91,27.63-2.81,11.28-1.88,21,2.76,29a29.66,29.66,0,0,0,13.42,12.14,37.12,37.12,0,0,0,29.38,0,29.66,29.66,0,0,0,13.42-12.14c4.64-8,5.57-17.73,2.76-29C128.87,115.19,125,106.15,119,95.59Zm2.86,53a22.42,22.42,0,0,1-10.15,9.17,29.78,29.78,0,0,1-23.33,0,22.47,22.47,0,0,1-10.17-9.17c-3.65-6.28-4.32-14.23-2-23.6,1.83-7.38,5.49-15.82,11.17-25.79L100,77l12.64,22.2c5.68,10,9.34,18.41,11.17,25.79C126.15,134.35,125.48,142.3,121.82,148.58Zm-15.5-45.79L100,91.69l-6.32,11.1c-5.27,9.26-8.78,17.31-10.43,23.94a34.57,34.57,0,0,0-1.14,9.56,18.48,18.48,0,0,0,2.36,8.63,15.14,15.14,0,0,0,6.89,6.22,22.56,22.56,0,0,0,17.28,0,15.27,15.27,0,0,0,6.9-6.22,18.6,18.6,0,0,0,2.35-8.63,34.53,34.53,0,0,0-1.13-9.56C115.11,120.1,111.6,112.05,106.32,102.79ZM100,145.58c-12.64,0-15.64-11.73,0-39.19C115.64,133.85,112.64,145.58,100,145.58Z"/></svg>