<?xml version="1.0" encoding="utf-8"?>
<!-- Generator: Adobe Illustrator 23.0.3, SVG Export Plug-In . SVG Version: 6.00 Build 0)  -->
<svg version="1.1" id="Layer_1" xmlns="http://www.w3.org/2000/svg" xmlns:xlink="http://www.w3.org/1999/xlink" x="0px" y="0px"
	 viewBox="0 0 200 200" style="enable-background:new 0 0 200 200;" xml:space="preserve">
<style type="text/css">
	.st0{fill:#303030;}
	.st1{fill:#FFFFFF;}
</style>
<rect x="-182.5" y="-126" class="st0" width="565" height="475"/>
<title>icon</title>
<path class="st1" d="M145.8,112.5c-2.1-8.2-5.8-17.1-11.5-27.1L100,25.2L65.8,85.4c-5.7,10-9.5,18.9-11.5,27.1
	c-1.4,5.5-2,11.3-1.9,17c0.1,3.6,0.7,7.1,1.5,10.6c1.1,4.1,2.7,8,4.8,11.7c4.7,8.2,11.9,14.7,20.5,18.6c13.2,5.9,28.3,5.9,41.5,0
	c8.6-3.9,15.8-10.4,20.5-18.6c2.1-3.7,3.7-7.6,4.8-11.7c0.9-3.5,1.4-7,1.5-10.6C147.8,123.8,147.2,118.1,145.8,112.5z M142,129.3
	c-0.2,6.9-2.1,13.7-5.6,19.7c-4.2,7.2-10.4,12.8-18,16.3c-11.7,5.2-25.1,5.2-36.8,0c-7.5-3.4-13.8-9.1-18-16.3
	c-3.5-6-5.4-12.8-5.6-19.7c-0.1-5.2,0.4-10.3,1.7-15.3c1.9-7.7,5.5-16.1,10.9-25.7L100,36.6l29.4,51.6c5.4,9.5,9,17.9,10.9,25.7
	C141.6,118.9,142.2,124.1,142,129.3z M124.5,91L100,48L75.6,91c-5.2,9.1-8.6,17-10.4,24.3c-1.2,4.5-1.7,9.1-1.5,13.8
	c0.2,6,1.9,11.9,4.9,17.1c3.6,6.1,9,11,15.5,13.9c10.2,4.5,21.9,4.5,32.1,0c6.5-2.9,11.9-7.8,15.5-13.9c3-5.2,4.6-11.1,4.8-17.1
	c0.1-4.6-0.4-9.3-1.5-13.8C133.1,108,129.7,100.1,124.5,91z M130.8,128.8c-0.2,5.1-1.6,10.1-4.1,14.5c-3,5.1-7.5,9.2-12.9,11.7
	c-8.8,3.8-18.7,3.8-27.5,0c-5.4-2.5-9.9-6.6-12.9-11.7c-2.5-4.4-3.9-9.4-4.1-14.5c-0.1-4.1,0.3-8.2,1.4-12.2
	c1.7-6.7,4.9-14.2,9.8-22.8L100,59.4l19.6,34.4c4.9,8.6,8.1,16.1,9.8,22.8C130.4,120.6,130.9,124.7,130.8,128.8z M114.7,96.6
	L100,70.8L85.3,96.6c-4.6,8.2-7.7,15.2-9.2,21.4c-2.2,8.7-1.5,16.3,2.1,22.5c2.4,4.1,6,7.4,10.4,9.4c7.3,3.1,15.5,3.1,22.8,0
	c4.4-2,8-5.3,10.4-9.4c3.6-6.2,4.3-13.7,2.1-22.5C122.4,111.8,119.4,104.8,114.7,96.6z M117,137.6c-1.8,3.1-4.6,5.6-7.9,7.1
	c-5.8,2.5-12.3,2.5-18.1,0c-3.3-1.5-6.1-4-7.9-7.1c-2.8-4.9-3.3-11-1.5-18.3c1.4-5.7,4.3-12.3,8.7-20l9.8-17.2l9.8,17.2
	c4.4,7.7,7.2,14.3,8.7,20C120.3,126.6,119.8,132.8,117,137.6L117,137.6z M105,102.2l-4.9-8.6l-4.9,8.6c-4.1,7.2-6.8,13.4-8.1,18.5
	c-0.6,2.4-0.9,4.9-0.9,7.4c0.1,2.3,0.7,4.6,1.8,6.7c1.2,2.1,3.1,3.8,5.3,4.8c4.3,1.8,9.1,1.8,13.4,0c2.2-1,4.1-2.7,5.3-4.8
	c1.1-2,1.8-4.3,1.8-6.7c0.1-2.5-0.2-5-0.9-7.4C111.7,115.6,109,109.3,105,102.2L105,102.2z M100,135.3c-9.8,0-12.1-9.1,0-30.4
	C112.1,126.2,109.8,135.3,100,135.3z"/>
</svg>
